<svg width="512" height="512" viewBox="0 0 512 512" fill="none" xmlns="http://www.w3.org/2000/svg">
  <defs>
    <!-- Gold gradient for the heart -->
    <linearGradient id="heartGradient" x1="0%" y1="0%" x2="100%" y2="100%">
      <stop offset="0%" style="stop-color:#D4AF37;stop-opacity:1" />
      <stop offset="50%" style="stop-color:#F4D03F;stop-opacity:1" />
      <stop offset="100%" style="stop-color:#C5A028;stop-opacity:1" />
    </linearGradient>
  </defs>

  <!-- Outer heart layer -->
  <path d="M256 448C248 448 240 445 234 439C180 390 134 348 98 308C54 260 32 216 32 168C32 100 86 44 154 44C190 44 224 62 246 92L256 106L266 92C288 62 322 44 358 44C426 44 480 100 480 168C480 216 458 260 414 308C378 348 332 390 278 439C272 445 264 448 256 448Z"
        fill="url(#heartGradient)"
        stroke="url(#heartGradient)"
        stroke-width="12"/>

  <!-- Middle heart layer -->
  <path d="M256 408C250 408 244 406 240 402C196 362 158 328 129 296C95 257 78 223 78 185C78 134 120 92 171 92C199 92 226 105 244 128L256 144L268 128C286 105 313 92 341 92C392 92 434 134 434 185C434 223 417 257 383 296C354 328 316 362 272 402C268 406 262 408 256 408Z"
        fill="none"
        stroke="url(#heartGradient)"
        stroke-width="16"/>

  <!-- Inner heart layer -->
  <path d="M256 368C252 368 248 366 245 363C210 332 180 306 158 282C133 254 120 229 120 202C120 168 146 140 180 140C201 140 221 150 234 168L256 196L278 168C291 150 311 140 332 140C366 140 392 168 392 202C392 229 379 254 354 282C332 306 302 332 267 363C264 366 260 368 256 368Z"
        fill="none"
        stroke="url(#heartGradient)"
        stroke-width="20"/>

  <!-- Center decorative element -->
  <path d="M256 256L246 236C242 228 234 224 226 224C214 224 204 234 204 246C204 254 208 262 214 268L256 310L298 268C304 262 308 254 308 246C308 234 298 224 286 224C278 224 270 228 266 236L256 256Z"
        fill="url(#heartGradient)"/>
</svg>
