<svg width="48" height="48" viewBox="0 0 48 48" fill="none" xmlns="http://www.w3.org/2000/svg">
  <!-- Orange gradient background circle -->
  <circle cx="24" cy="24" r="24" fill="#FF8E53"/>

  <!-- White heart icon -->
  <path d="M24 35.5C23.5 35.5 23 35.3 22.6 34.9C19.8 32.4 17.3 30.2 15.4 28.1C13.2 25.7 12 23.6 12 21.3C12 17.9 14.7 15.2 18.1 15.2C20.1 15.2 22 16.2 23.2 17.8L24 18.9L24.8 17.8C26 16.2 27.9 15.2 29.9 15.2C33.3 15.2 36 17.9 36 21.3C36 23.6 34.8 25.7 32.6 28.1C30.7 30.2 28.2 32.4 25.4 34.9C25 35.3 24.5 35.5 24 35.5Z" fill="white"/>
</svg>
